<?xml version="1.0" encoding="UTF-8"?>
<svg xmlns="http://www.w3.org/2000/svg" viewBox="0 0 1024 1024" width="1024" height="1024">
  <defs>
    <linearGradient id="g" x1="0" y1="0" x2="1024" y2="1024" gradientUnits="userSpaceOnUse">
      <stop offset="0" stop-color="#A88BFF"/>
      <stop offset="0.55" stop-color="#7C7DF6"/>
      <stop offset="1" stop-color="#5B8DEF"/>
    </linearGradient>
    <linearGradient id="s" x1="0" y1="0" x2="0" y2="1024" gradientUnits="userSpaceOnUse">
      <stop offset="0" stop-color="rgba(255,255,255,0.32)"/>
      <stop offset="0.4" stop-color="rgba(255,255,255,0)"/>
    </linearGradient>
  </defs>
  <path d="M 512 0 C 870 0, 1024 154, 1024 512 C 1024 870, 870 1024, 512 1024 C 154 1024, 0 870, 0 512 C 0 154, 154 0, 512 0 Z" fill="url(#g)"/>
  <path d="M 512 0 C 870 0, 1024 154, 1024 512 C 1024 870, 870 1024, 512 1024 C 154 1024, 0 870, 0 512 C 0 154, 154 0, 512 0 Z" fill="url(#s)"/>
  <g fill="#FFFFFF">
    <rect x="280" y="410" width="64" height="300" rx="32"/>
    <rect x="378" y="350" width="64" height="420" rx="32"/>
    <rect x="476" y="460" width="64" height="200" rx="32"/>
    <rect x="574" y="350" width="64" height="420" rx="32"/>
    <rect x="672" y="410" width="64" height="300" rx="32"/>
    <circle cx="512" cy="266" r="22"/>
  </g>
</svg>