<?xml version="1.0" encoding="UTF-8"?>
<svg xmlns="http://www.w3.org/2000/svg" viewBox="0 0 512 512" width="512" height="512"><defs>
    <linearGradient id="g" x1="0" y1="0" x2="512" y2="512" gradientUnits="userSpaceOnUse">
      <stop offset="0" stop-color="#A88BFF"></stop>
      <stop offset="0.55" stop-color="#7C7DF6"></stop>
      <stop offset="1" stop-color="#5B8DEF"></stop>
    </linearGradient>
    <linearGradient id="s" x1="0" y1="0" x2="0" y2="512" gradientUnits="userSpaceOnUse">
      <stop offset="0" stop-color="rgba(255,255,255,0.32)"></stop>
      <stop offset="0.4" stop-color="rgba(255,255,255,0)"></stop>
    </linearGradient>
  </defs><path d="M 256 0 C 435 0, 512 77, 512 256 C 512 435, 435 512, 256 512 C 77 512, 0 435, 0 256 C 0 77, 77 0, 256 0 Z" fill="url(#g)"></path><path d="M 256 0 C 435 0, 512 77, 512 256 C 512 435, 435 512, 256 512 C 77 512, 0 435, 0 256 C 0 77, 77 0, 256 0 Z" fill="url(#s)"></path><g fill="#fff">
    <path d="M 380 156 c -22 -10 -46 -18 -71 -22 c -3 6 -7 14 -10 20 c -27 -4 -53 -4 -79 0 c -3 -6 -7 -14 -10 -20 c -25 4 -49 12 -71 22 c -45 67 -57 132 -51 196 c 30 22 58 35 86 44 c 7 -10 13 -20 18 -31 c -10 -4 -19 -8 -28 -14 c 2 -2 5 -3 7 -5 c 53 25 110 25 162 0 c 2 2 5 3 7 5 c -9 6 -18 10 -28 14 c 5 11 11 21 18 31 c 28 -9 56 -22 86 -44 c 7 -75 -13 -140 -36 -196 z m -178 158 c -17 0 -31 -16 -31 -36 c 0 -20 14 -36 31 -36 c 17 0 31 16 31 36 c 0 20 -14 36 -31 36 z m 108 0 c -17 0 -31 -16 -31 -36 c 0 -20 14 -36 31 -36 c 17 0 31 16 31 36 c 0 20 -14 36 -31 36 z"></path>
  </g></svg>