<?xml version="1.0" encoding="UTF-8"?>
<svg xmlns="http://www.w3.org/2000/svg" viewBox="0 0 512 512" width="512" height="512"><defs>
    <linearGradient id="g" x1="0" y1="0" x2="512" y2="512" gradientUnits="userSpaceOnUse">
      <stop offset="0" stop-color="#A88BFF"></stop>
      <stop offset="0.55" stop-color="#7C7DF6"></stop>
      <stop offset="1" stop-color="#5B8DEF"></stop>
    </linearGradient>
    <linearGradient id="s" x1="0" y1="0" x2="0" y2="512" gradientUnits="userSpaceOnUse">
      <stop offset="0" stop-color="rgba(255,255,255,0.32)"></stop>
      <stop offset="0.4" stop-color="rgba(255,255,255,0)"></stop>
    </linearGradient>
  </defs><path d="M 256 0 C 435 0, 512 77, 512 256 C 512 435, 435 512, 256 512 C 77 512, 0 435, 0 256 C 0 77, 77 0, 256 0 Z" fill="url(#g)"></path><path d="M 256 0 C 435 0, 512 77, 512 256 C 512 435, 435 512, 256 512 C 77 512, 0 435, 0 256 C 0 77, 77 0, 256 0 Z" fill="url(#s)"></path><g fill="none" stroke="#fff" stroke-width="28" stroke-linecap="round" stroke-linejoin="round">
    <path d="M 256 380 c -68 0 -120 -52 -120 -124 s 52 -124 120 -124 c 56 0 96 30 110 76 c -8 38 -36 60 -76 60 c -32 0 -52 -16 -52 -38 c 0 -20 18 -34 42 -34 c 36 0 60 24 60 70 c 0 56 -38 90 -84 90"></path>
  </g></svg>