<?xml version="1.0" encoding="UTF-8"?>
<svg xmlns="http://www.w3.org/2000/svg" viewBox="0 0 512 512" width="512" height="512"><defs>
    <linearGradient id="g" x1="0" y1="0" x2="512" y2="512" gradientUnits="userSpaceOnUse">
      <stop offset="0" stop-color="#A88BFF"></stop>
      <stop offset="0.55" stop-color="#7C7DF6"></stop>
      <stop offset="1" stop-color="#5B8DEF"></stop>
    </linearGradient>
    <linearGradient id="s" x1="0" y1="0" x2="0" y2="512" gradientUnits="userSpaceOnUse">
      <stop offset="0" stop-color="rgba(255,255,255,0.32)"></stop>
      <stop offset="0.4" stop-color="rgba(255,255,255,0)"></stop>
    </linearGradient>
  </defs><path d="M 256 0 C 435 0, 512 77, 512 256 C 512 435, 435 512, 256 512 C 77 512, 0 435, 0 256 C 0 77, 77 0, 256 0 Z" fill="url(#g)"></path><path d="M 256 0 C 435 0, 512 77, 512 256 C 512 435, 435 512, 256 512 C 77 512, 0 435, 0 256 C 0 77, 77 0, 256 0 Z" fill="url(#s)"></path><g fill="#fff">
    <path d="M 312 128 c 6 28 24 50 50 56 v 44 c -22 0 -42 -6 -58 -16 v 92 c 0 50 -40 90 -90 90 s -90 -40 -90 -90 s 40 -90 90 -90 v 44 c -26 0 -46 20 -46 46 s 20 46 46 46 s 46 -20 46 -46 v -176 z"></path>
  </g></svg>