<?xml version="1.0" encoding="UTF-8"?>
<svg xmlns="http://www.w3.org/2000/svg" viewBox="0 0 512 512" width="512" height="512"><defs>
    <linearGradient id="g" x1="0" y1="0" x2="512" y2="512" gradientUnits="userSpaceOnUse">
      <stop offset="0" stop-color="#A88BFF"></stop>
      <stop offset="0.55" stop-color="#7C7DF6"></stop>
      <stop offset="1" stop-color="#5B8DEF"></stop>
    </linearGradient>
    <linearGradient id="s" x1="0" y1="0" x2="0" y2="512" gradientUnits="userSpaceOnUse">
      <stop offset="0" stop-color="rgba(255,255,255,0.32)"></stop>
      <stop offset="0.4" stop-color="rgba(255,255,255,0)"></stop>
    </linearGradient>
  </defs><path d="M 256 0 C 435 0, 512 77, 512 256 C 512 435, 435 512, 256 512 C 77 512, 0 435, 0 256 C 0 77, 77 0, 256 0 Z" fill="url(#g)"></path><path d="M 256 0 C 435 0, 512 77, 512 256 C 512 435, 435 512, 256 512 C 77 512, 0 435, 0 256 C 0 77, 77 0, 256 0 Z" fill="url(#s)"></path><g fill="#fff">
    <path d="M 256 112 c -80 0 -144 64 -144 144 c 0 26 7 50 19 71 l -19 73 l 75 -19 c 20 11 44 17 69 17 c 80 0 144 -64 144 -144 s -64 -142 -144 -142 z m 84 200 c -4 10 -20 20 -28 21 c -8 1 -16 4 -52 -10 c -42 -16 -68 -56 -70 -58 c -2 -2 -16 -22 -16 -42 c 0 -20 11 -30 14 -34 c 4 -4 8 -5 11 -5 c 3 0 5 0 8 0 c 3 0 6 -1 10 7 c 4 9 12 28 13 30 c 1 2 2 5 0 7 c -2 4 -3 6 -5 9 c -3 3 -6 7 -8 9 c -3 3 -5 6 -2 11 c 3 6 14 22 30 36 c 20 18 38 24 44 27 c 5 2 9 2 12 -1 c 3 -3 14 -16 17 -22 c 3 -5 7 -4 11 -3 c 5 1 28 13 32 16 c 4 2 7 3 8 5 c 1 2 1 11 -3 21 z"></path>
  </g></svg>