<?xml version="1.0" encoding="UTF-8"?>
<svg xmlns="http://www.w3.org/2000/svg" viewBox="0 0 512 512" width="512" height="512"><g fill="#fff">
    <path d="M 256 112 c -80 0 -144 64 -144 144 c 0 64 41 118 98 137 c 7 1 10 -3 10 -7 v -25 c -40 9 -48 -19 -48 -19 c -7 -17 -16 -22 -16 -22 c -13 -9 1 -9 1 -9 c 14 1 22 14 22 14 c 13 22 33 16 41 12 c 1 -9 5 -16 9 -19 c -32 -4 -65 -16 -65 -71 c 0 -16 6 -29 15 -39 c -2 -4 -7 -19 1 -39 c 0 0 13 -4 41 16 c 12 -3 25 -5 38 -5 c 13 0 26 2 38 5 c 28 -20 41 -16 41 -16 c 8 20 3 35 1 39 c 9 10 15 23 15 39 c 0 55 -33 67 -65 71 c 5 4 10 13 10 26 v 38 c 0 4 3 8 10 7 c 57 -19 98 -73 98 -137 c 0 -80 -64 -144 -144 -144 z"></path>
  </g></svg>